<svg width="28" height="28" viewBox="0 0 28 28" fill="none" xmlns="http://www.w3.org/2000/svg">
<path d="M25.0529 19.5966H9.12161L9.92152 17.9358L23.2124 17.9112C23.6618 17.9112 24.047 17.584 24.1273 17.1313L25.9679 6.62898C26.0161 6.35354 25.9438 6.06991 25.7673 5.85447C25.68 5.74844 25.5711 5.66303 25.4483 5.60416C25.3254 5.5453 25.1914 5.51439 25.0556 5.51357L8.14781 5.4563L8.00334 4.7636C7.91238 4.3218 7.52179 4 7.07769 4H2.94438C2.69391 4 2.45371 4.10143 2.2766 4.28196C2.0995 4.4625 2 4.70737 2 4.96269C2 5.21801 2.0995 5.46287 2.2766 5.64341C2.45371 5.82395 2.69391 5.92538 2.94438 5.92538H6.31256L6.94393 8.98525L8.49827 16.6567L6.49716 19.9866C6.39324 20.1296 6.33064 20.2994 6.31646 20.4767C6.30228 20.6541 6.33707 20.832 6.4169 20.9902C6.57742 21.3147 6.90113 21.5193 7.25961 21.5193H8.93969C8.58152 22.0042 8.38806 22.5949 8.38859 23.2019C8.38859 24.7455 9.61922 26 11.1334 26C12.6476 26 13.8783 24.7455 13.8783 23.2019C13.8783 22.5938 13.6803 22.002 13.3272 21.5193H17.6371C17.2789 22.0042 17.0854 22.5949 17.0859 23.2019C17.0859 24.7455 18.3166 26 19.8308 26C21.345 26 22.5756 24.7455 22.5756 23.2019C22.5756 22.5938 22.3777 22.002 22.0245 21.5193H25.0556C25.5746 21.5193 26 21.0884 26 20.5566C25.9984 20.3015 25.898 20.0575 25.7206 19.8776C25.5432 19.6978 25.3032 19.5968 25.0529 19.5966ZM8.54108 7.35441L23.9454 7.40622L22.4365 16.0186L10.3362 16.0404L8.54108 7.35441ZM11.1334 24.0637C10.6679 24.0637 10.288 23.6765 10.288 23.2019C10.288 22.7274 10.6679 22.3402 11.1334 22.3402C11.5989 22.3402 11.9788 22.7274 11.9788 23.2019C11.9788 23.4305 11.8898 23.6497 11.7312 23.8113C11.5727 23.9729 11.3576 24.0637 11.1334 24.0637ZM19.8308 24.0637C19.3653 24.0637 18.9854 23.6765 18.9854 23.2019C18.9854 22.7274 19.3653 22.3402 19.8308 22.3402C20.2963 22.3402 20.6762 22.7274 20.6762 23.2019C20.6762 23.4305 20.5871 23.6497 20.4286 23.8113C20.27 23.9729 20.055 24.0637 19.8308 24.0637Z" fill="#1C201D"/>
</svg>
