<svg width="28" height="32" viewBox="0 0 28 32" fill="none" xmlns="http://www.w3.org/2000/svg">
<path d="M26.7136 21.6416C26.5743 23.0638 25.3133 24.1048 23.8911 23.9655C22.4689 23.8262 21.4279 22.5653 21.5672 21.1431C21.7065 19.7208 22.9674 18.6798 24.3896 18.8191C25.8119 18.9584 26.8529 20.2194 26.7136 21.6416Z" fill="#C4C0BC"/>
<path d="M25.6941 28.9287C25.5548 30.3509 24.2938 31.3919 22.8716 31.2526C21.4494 31.1133 20.4084 29.8524 20.5477 28.4302C20.6869 27.008 21.9479 25.967 23.3701 26.1062C24.7923 26.2455 25.8333 27.5065 25.6941 28.9287Z" fill="#C4C0BC"/>
<path d="M18.2019 25.8721C18.0626 27.2943 16.8017 28.3353 15.3794 28.196C13.9572 28.0567 12.9162 26.7958 13.0555 25.3736C13.1948 23.9514 14.4557 22.9103 15.8779 23.0496C17.3002 23.1889 18.3412 24.4499 18.2019 25.8721Z" fill="#C4C0BC"/>
<path d="M22.1589 14.8174C22.0196 16.2396 20.7587 17.2806 19.3365 17.1413C17.9142 17.002 16.8732 15.7411 17.0125 14.3189C17.1518 12.8966 18.4127 11.8556 19.835 11.9949C21.2572 12.1342 22.2982 13.3951 22.1589 14.8174Z" fill="#C4C0BC"/>
<path d="M13.5545 1.07812C21.7653 10.8578 12.8214 14.3254 12.8214 14.3254C12.8214 14.3254 4.31733 9.8974 13.5545 1.07812Z" fill="#C4C0BC"/>
<path d="M2.50391 21.7002C12.8994 22.7192 11.1032 15.0876 11.1032 15.0876C11.1032 15.0876 4.18272 11.3927 2.50391 21.7002Z" fill="#C4C0BC"/>
<path d="M0.241293 10.5564C0.241293 10.5564 10.7321 14.5299 15.7978 18.0634L21.3988 26.934C21.4721 27.044 21.626 27.0807 21.7507 27.0147C21.8753 26.9487 21.9119 26.7947 21.8533 26.6701L16.8095 16.9345C16.8095 16.9345 8.78201 11.5534 1.10638 8.70898C1.10638 8.70898 -0.631097 9.23683 0.248631 10.5491L0.241293 10.5564Z" fill="#424651"/>
<path d="M12.7769 15.124L12.4837 14.9701C12.3444 14.8968 9.08206 13.1593 8.58355 9.64037C8.18034 6.81791 9.68321 3.7535 13.0555 0.542492L13.62 0L14.1258 0.601153C17.1169 4.16405 18.2752 7.37507 17.5641 10.1389C16.677 13.5772 13.2461 14.9481 13.0995 14.9994L12.7916 15.1167L12.7769 15.124ZM13.488 2.16267C10.8782 4.81652 9.71253 7.25775 10.0278 9.43508C10.343 11.6637 12.1464 13.0273 12.8649 13.4892C13.6273 13.108 15.5847 11.935 16.1346 9.75765C16.6771 7.63164 15.79 5.0731 13.4954 2.15534L13.488 2.16267Z" fill="#424651"/>
<path d="M13.4165 14.1702C13.4165 14.1702 12.5002 8.78189 13.2259 6.53125C13.2259 6.53125 12.5661 7.96811 12.3242 14.1555L13.4239 14.1702H13.4165Z" fill="#424651"/>
<path d="M4.32524 22.5288C3.73143 22.5288 3.10095 22.4994 2.44115 22.4334L1.66406 22.3601L1.7887 21.5904C2.85171 15.0804 5.96007 13.7168 8.37932 13.7168C10.0728 13.7168 11.3997 14.4206 11.4584 14.4499L11.7516 14.6039L11.8249 14.9264C11.8543 15.0437 12.4994 17.8955 10.7399 20.1095C9.46432 21.7223 7.30899 22.536 4.32524 22.536V22.5288ZM3.37955 21.0332C3.70212 21.0552 4.02467 21.0625 4.32524 21.0625C6.83247 21.0625 8.59925 20.4394 9.58895 19.2004C10.6006 17.9321 10.542 16.29 10.454 15.5935C10.0435 15.4249 9.26638 15.1757 8.37932 15.1757C5.30761 15.1757 3.96604 18.1961 3.37955 21.0332Z" fill="#424651"/>
<path d="M11.2842 15.5573C11.2842 15.5573 7.22279 17.4268 6.03516 18.959C6.03516 18.959 6.70227 17.852 10.7637 14.8242L11.2842 15.5573Z" fill="#424651"/>
<path d="M24.1422 24.7127C24.0322 24.7127 23.9296 24.7127 23.8196 24.6981C21.9942 24.5221 20.6599 22.8946 20.8359 21.0765C21.0045 19.3684 22.4194 18.0781 24.1349 18.0781C24.2448 18.0781 24.3475 18.0781 24.4574 18.0928C26.2829 18.2687 27.6171 19.8962 27.4412 21.7143C27.2726 23.4224 25.8577 24.7127 24.1422 24.7127ZM24.1349 19.537C23.1745 19.537 22.3827 20.2554 22.2948 21.2158C22.1995 22.2348 22.9472 23.1439 23.9589 23.2392C24.9926 23.3418 25.887 22.5867 25.9823 21.575C26.0776 20.556 25.3298 19.647 24.3182 19.5517C24.2595 19.5517 24.1935 19.5443 24.1349 19.5443V19.537Z" fill="#424651"/>
<path d="M23.1237 31.9994C23.0137 31.9994 22.9111 31.9994 22.8011 31.9847C21.9214 31.8967 21.1223 31.4788 20.5578 30.7897C19.9933 30.1079 19.7294 29.2429 19.8174 28.3558C19.986 26.6477 21.4009 25.3574 23.1164 25.3574C23.2263 25.3574 23.329 25.3574 23.4389 25.3721C25.2644 25.548 26.5986 27.1755 26.4227 28.9936C26.2541 30.7017 24.8392 31.992 23.1237 31.992V31.9994ZM23.1164 26.8236C22.156 26.8236 21.3642 27.5421 21.2763 28.5024C21.2249 28.9936 21.3789 29.4775 21.6868 29.8587C22.002 30.2399 22.4492 30.4745 22.9404 30.5258C23.9814 30.6285 24.8685 29.8733 24.9638 28.8616C25.0591 27.8426 24.3113 26.9336 23.2996 26.8383C23.241 26.8383 23.175 26.831 23.1164 26.831V26.8236Z" fill="#424651"/>
<path d="M15.6276 28.9427C15.5176 28.9427 15.415 28.9427 15.305 28.9281C14.4253 28.8401 13.6262 28.4222 13.0617 27.7331C12.4972 27.0513 12.2333 26.1862 12.3213 25.2992C12.4899 23.591 13.9048 22.3008 15.6203 22.3008C15.7302 22.3008 15.8329 22.3008 15.9428 22.3154C16.8226 22.4034 17.6216 22.8213 18.1861 23.5104C18.7506 24.1922 19.0146 25.0572 18.9266 25.9443C18.758 27.6524 17.3431 28.9427 15.6276 28.9427ZM15.6203 23.767C14.6599 23.767 13.8681 24.4854 13.7802 25.4458C13.7288 25.937 13.8828 26.4208 14.1907 26.802C14.506 27.1832 14.9531 27.4179 15.4443 27.4692C16.4853 27.5718 17.3724 26.8167 17.4677 25.805C17.519 25.3138 17.3651 24.83 17.0571 24.4488C16.7419 24.0676 16.2947 23.8329 15.8035 23.7816C15.7449 23.7816 15.6789 23.7743 15.6203 23.7743V23.767Z" fill="#424651"/>
<path d="M19.5875 17.8866C19.4776 17.8866 19.3749 17.8865 19.265 17.8719C17.4395 17.6959 16.1053 16.0684 16.2812 14.2503C16.4498 12.5422 17.8647 11.252 19.5802 11.252C19.6902 11.252 19.7928 11.2519 19.9028 11.2666C21.7282 11.4425 23.0625 13.07 22.8865 14.8881C22.7179 16.5963 21.303 17.8866 19.5875 17.8866ZM19.5875 12.7108C18.6272 12.7108 17.8354 13.4293 17.7474 14.3896C17.6521 15.4086 18.3999 16.3177 19.4116 16.413C20.4453 16.5156 21.3396 15.7605 21.4349 14.7488C21.5303 13.7298 20.7825 12.8208 19.7708 12.7255C19.7122 12.7255 19.6462 12.7182 19.5875 12.7182V12.7108Z" fill="#424651"/>
<path d="M17.7426 19.5079L16.7969 18.9434L18.3584 16.3555L19.2968 16.92L17.7426 19.5079Z" fill="#424651"/>
<path d="M18.9365 22.2643L18.9219 21.1646L21.7517 21.1133L21.7737 22.2129L18.9365 22.2643Z" fill="#424651"/>
<path d="M17.6093 24.0525L16.6562 23.51L17.9978 21.1348L18.9509 21.6773L17.6093 24.0525Z" fill="#424651"/>
<path d="M24.4621 22.6757C24.2789 22.6757 24.1176 22.5365 24.0956 22.3459C24.0589 22.0746 24.1836 21.5174 24.88 21.3048C25.0706 21.2462 25.2759 21.3562 25.3345 21.5541C25.3932 21.7447 25.2832 21.95 25.0853 22.0086C24.8434 22.0819 24.8214 22.2139 24.8214 22.2652C24.8434 22.4631 24.7041 22.6464 24.5061 22.6684C24.4915 22.6684 24.4768 22.6684 24.4621 22.6684V22.6757Z" fill="#424651"/>
<path d="M23.6145 29.9848C23.4312 29.9848 23.2773 29.8528 23.2479 29.6622C23.2113 29.391 23.3359 28.8338 24.0324 28.6212C24.223 28.5626 24.4282 28.6725 24.4869 28.8705C24.5455 29.0611 24.4356 29.2663 24.2376 29.325C23.9591 29.4056 23.9737 29.5669 23.9737 29.5669C23.9957 29.7649 23.8564 29.9481 23.6585 29.9775C23.6438 29.9775 23.6292 29.9775 23.6145 29.9775V29.9848Z" fill="#424651"/>
<path d="M15.6206 27.1238C15.4887 27.1238 15.3641 27.0578 15.2981 26.9331C15.1588 26.6766 15.0048 26.7279 15.0048 26.7279C14.8142 26.7939 14.6016 26.6912 14.5356 26.5006C14.4697 26.31 14.5723 26.0974 14.7629 26.0314C15.0195 25.9435 15.5913 25.9435 15.9432 26.5813C16.0385 26.7572 15.9725 26.9845 15.7966 27.0798C15.7379 27.1091 15.6793 27.1238 15.6206 27.1238Z" fill="#424651"/>
<path d="M19.8215 15.8285C19.6382 15.8285 19.4843 15.6966 19.455 15.506C19.4183 15.2347 19.5429 14.6776 20.2394 14.465C20.43 14.4063 20.6353 14.5163 20.6939 14.7142C20.7526 14.9048 20.6426 15.1101 20.4447 15.1687C20.1661 15.2494 20.1807 15.4107 20.1807 15.4107C20.2027 15.6086 20.0634 15.7919 19.8655 15.8212C19.8508 15.8212 19.8362 15.8212 19.8215 15.8212V15.8285Z" fill="#424651"/>
</svg>
