<svg width="24" height="32" viewBox="0 0 24 32" fill="none" xmlns="http://www.w3.org/2000/svg">
<path d="M9.63965 11.0322C13.1961 10.1492 17.3647 11.7781 18.8643 15.9404L19.001 16.3516L19.0029 16.3574C19.3661 17.5801 19.6133 19.3654 19.5996 21.2705L19.5938 21.9717C19.5876 22.1975 19.5734 22.4273 19.5498 22.6543C19.4785 24.0297 19.2784 25.2582 19.002 26.1846L19.001 26.1885C18.4644 27.949 17.4656 29.2999 16.1963 30.2383L16.1953 30.2373C15.3696 30.8486 14.4496 31.279 13.4609 31.5166L13.46 31.5156C11.1788 32.0834 8.656 31.6227 6.72559 30.0918C5.55392 29.1669 4.62625 27.8578 4.10645 26.1934C4.10505 26.1889 4.10385 26.1842 4.10254 26.1797C3.84941 25.3102 3.64827 24.1598 3.56836 22.875L3.54102 22.3164C3.52484 22.1426 3.51503 21.9704 3.51074 21.8027L3.50684 21.2705C3.49313 19.3653 3.74035 17.5801 4.10352 16.3574L4.10547 16.3516C5.00273 13.4105 7.19409 11.6442 9.63867 11.0332L9.63965 11.0322ZM17.5645 16.7832C16.4576 13.1797 12.9961 11.7436 10.001 12.4873L10.002 12.4883C8.029 12.9815 6.27215 14.3895 5.54004 16.7891C5.22782 17.8427 4.99352 19.4758 5.00684 21.2646V21.2705C5.00684 21.534 5.00672 21.7685 5.01953 21.9932L5.03711 22.2158L5.04004 22.2666C5.08661 23.6701 5.29383 24.9049 5.54297 25.7607C5.94933 27.0532 6.63798 28.0538 7.4834 28.7744L7.65527 28.915L7.65625 28.916C9.20266 30.1429 11.2454 30.5239 13.1035 30.0596L13.1104 30.0576C13.9021 29.8673 14.6397 29.5237 15.3047 29.0312C16.3128 28.2858 17.1229 27.2067 17.5664 25.752C17.8002 24.9671 17.9861 23.8632 18.0527 22.5771L18.0557 22.5332C18.0985 22.1471 18.0996 21.7341 18.0996 21.2705V21.2646C18.1129 19.4732 17.8774 17.8376 17.5645 16.7842V16.7832ZM9.76758 15.4707C10.0021 15.1296 10.4693 15.0431 10.8105 15.2773L10.5195 15.7012C10.8013 15.2913 10.811 15.2776 10.8115 15.2773V15.2783L10.8135 15.2793L10.8252 15.2871C10.8315 15.2916 10.8395 15.2979 10.8486 15.3047C10.8672 15.3183 10.8918 15.3373 10.9209 15.3604C10.9794 15.4067 11.0588 15.4724 11.1504 15.5576C11.3335 15.7281 11.5716 15.9804 11.8086 16.3164C12.2857 16.9929 12.7557 18.0113 12.7559 19.377C12.7559 20.3331 12.4779 21.5455 12.1826 22.251L12.1816 22.2549C11.9592 22.7789 11.7257 23.7927 11.7256 24.5361C11.7256 25.5428 12.0662 26.266 12.3984 26.7363C12.5657 26.973 12.7324 27.1464 12.8525 27.2578C12.9122 27.3131 12.9604 27.3534 12.9902 27.377C13.0046 27.3882 13.0153 27.3956 13.0205 27.3994C13.0221 27.4006 13.0238 27.4019 13.0244 27.4023L13.0225 27.4014C13.3614 27.6355 13.448 28.0995 13.2158 28.4404C12.9825 28.7827 12.5161 28.871 12.1738 28.6377L12.5967 28.0186L12.1729 28.6377V28.6367L12.1709 28.6357L12.1592 28.6279C12.1529 28.6234 12.1449 28.6171 12.1357 28.6104C12.1171 28.5967 12.0917 28.5786 12.0625 28.5557C12.0038 28.5095 11.9247 28.4433 11.833 28.3584C11.6496 28.1884 11.4109 27.9371 11.1738 27.6016C10.696 26.9252 10.2256 25.9059 10.2256 24.5361C10.2257 23.5807 10.5038 22.3675 10.8008 21.668C11.0246 21.131 11.2559 20.118 11.2559 19.377C11.2557 18.3753 10.9159 17.6528 10.583 17.1807C10.4152 16.9428 10.2485 16.7675 10.1279 16.6553C10.0682 16.5997 10.0202 16.5598 9.99023 16.5361C9.97544 16.5244 9.96403 16.5164 9.95898 16.5127C9.95706 16.5112 9.95602 16.5098 9.95605 16.5098C9.61924 16.274 9.53425 15.8102 9.76758 15.4707ZM4.25684 4.86426C4.59314 8.51129 4.86504 8.78295 8.51367 9.11914C4.86493 9.45534 4.59315 9.72668 4.25684 13.374C3.92052 9.72666 3.64873 9.45534 0 9.11914C3.64864 8.78295 3.92053 8.51132 4.25684 4.86426ZM18.8516 4.86426C19.1879 8.51128 19.4598 8.78295 23.1084 9.11914C19.4597 9.45534 19.1879 9.7267 18.8516 13.374C18.5152 9.72671 18.2433 9.45533 14.5947 9.11914C18.2432 8.78296 18.5153 8.51128 18.8516 4.86426ZM11.5537 0C11.89 3.64741 12.1619 3.91869 15.8105 4.25488C12.1619 4.59108 11.89 4.86332 11.5537 8.51074C11.2174 4.86328 10.9457 4.59108 7.29688 4.25488C10.9456 3.91868 11.2174 3.64744 11.5537 0Z" fill="#333634"/>
</svg>
