<svg width="29" height="33" viewBox="0 0 29 33" fill="none" xmlns="http://www.w3.org/2000/svg">
<path fill-rule="evenodd" clip-rule="evenodd" d="M21.1323 17.0781C23.3991 16.4829 25.4001 17.3749 26.6919 18.9297C28.6296 21.2148 29.1116 25.0858 26.7818 27.9355C26.1425 28.7264 25.0997 29.6479 23.9038 30.4189C22.7011 31.2372 21.4647 31.8013 20.5513 32.0556L20.5386 32.0586C18.2511 32.6536 16.2679 31.7573 14.9615 30.2041L14.9595 30.2002C13.0459 27.8987 12.5626 24.0586 14.8853 21.2021C15.4476 20.506 16.3253 19.7086 17.3365 19.0029L17.7779 18.706C18.9809 17.8937 20.2116 17.3346 21.1216 17.081L21.1323 17.0781ZM25.5425 19.8935C24.5662 18.715 23.1388 18.1027 21.5181 18.5263C20.7847 18.7316 19.6975 19.2174 18.605 19.957C18.6008 19.9599 18.5966 19.964 18.5923 19.9668C17.4972 20.6744 16.5709 21.5014 16.0503 22.1465L16.0484 22.1484C14.2372 24.376 14.5946 27.4152 16.1128 29.2412C17.1072 30.4216 18.5167 31.0298 20.1499 30.6093C20.8833 30.4049 21.9728 29.92 23.0611 29.1797L23.0767 29.1689C24.1752 28.4627 25.0953 27.6352 25.6167 26.9892L25.6197 26.9863C27.4358 24.765 27.0771 21.7036 25.5484 19.9004L25.5425 19.8935ZM24.022 20.7148C24.4348 20.7408 24.7495 21.0968 24.7241 21.5097L23.9751 21.4638C24.7171 21.5097 24.7241 21.5104 24.7241 21.5107L24.7232 21.5127V21.5254C24.7227 21.5319 24.7221 21.5402 24.7212 21.5498C24.7195 21.5692 24.7162 21.5948 24.7124 21.6259C24.7049 21.6887 24.6931 21.7751 24.6734 21.8789C24.6339 22.0858 24.563 22.3694 24.439 22.6884C24.1916 23.3245 23.7187 24.1257 22.8277 24.7265C22.1936 25.1611 21.2928 25.4651 20.7271 25.5517C20.7168 25.5533 20.706 25.5535 20.6958 25.5547C20.3817 25.604 19.8233 25.7991 19.4683 26.0302L19.4693 26.0312C18.9819 26.3549 18.7187 26.7826 18.5757 27.1406C18.5042 27.3195 18.4652 27.4772 18.4439 27.5859C18.4334 27.6394 18.4274 27.6806 18.4243 27.705C18.4229 27.7166 18.4218 27.725 18.4214 27.7285V27.7275L18.4136 27.7998C18.3513 28.1748 18.0131 28.4493 17.6255 28.4248C17.2126 28.3982 16.8993 28.0418 16.9253 27.6289L17.6734 27.6757C16.9863 27.6322 16.9299 27.6285 16.9253 27.6279V27.622C16.9255 27.6198 16.9261 27.617 16.9263 27.6142C16.9268 27.608 16.9274 27.5996 16.9282 27.5908C16.9299 27.573 16.9317 27.5492 16.9351 27.5215C16.942 27.4653 16.9533 27.3892 16.9712 27.2978C17.007 27.1151 17.0711 26.8656 17.1831 26.5849C17.4077 26.0227 17.8356 25.3149 18.6392 24.7812L18.6441 24.7783C19.1947 24.418 19.9841 24.138 20.5113 24.0644C20.5192 24.0633 20.5277 24.0633 20.5357 24.0625C20.9203 23.9959 21.5726 23.7694 21.98 23.4902L21.9859 23.4863C22.5589 23.1012 22.8711 22.5827 23.0415 22.1445C23.1266 21.9258 23.1741 21.7324 23.1997 21.5976C23.2124 21.5308 23.2194 21.4789 23.2232 21.4472C23.225 21.4318 23.2266 21.4212 23.2271 21.416V21.414C23.2544 21.0024 23.6098 20.6893 24.022 20.7148ZM4.67825 8.38571C7.53328 7.64135 10.8213 9.13163 11.8531 12.7158L11.9546 13.1025C12.1808 14.0487 12.3292 15.3141 12.315 16.6377L12.312 17.2021C12.285 18.5052 12.1143 19.7075 11.8726 20.5703L11.8706 20.5752C11.2001 22.9141 9.54463 24.3948 7.64504 24.8818L7.64407 24.8808C4.79211 25.6187 1.49846 24.1525 0.466334 20.542L0.46731 20.541C0.184457 19.5664 -0.0113785 18.1243 0.000513462 16.6084C-0.0104133 15.097 0.172777 13.68 0.447779 12.6914L0.448756 12.6894C1.1137 10.3317 2.77927 8.86415 4.67825 8.38473V8.38571ZM10.4116 13.1328C9.61227 10.3528 7.14655 9.28901 5.05129 9.83786L5.04544 9.83981V9.83883C3.67461 10.185 2.41388 11.2464 1.89211 13.0927C1.66118 13.923 1.48943 15.2024 1.50051 16.6084V16.6201C1.4895 18.0238 1.67298 19.3187 1.90774 20.1259L1.90872 20.1289V20.1299C2.70778 22.9247 5.17172 23.9738 7.27102 23.4297L7.27297 23.4287C8.64366 23.0771 9.90172 22.002 10.4292 20.1621C10.6591 19.3399 10.8315 18.0579 10.815 16.6552C10.8149 16.6496 10.8149 16.6433 10.815 16.6377C10.8315 15.2358 10.6473 13.9419 10.4126 13.1347L10.4116 13.1328ZM6.56985 11.4804C6.90962 11.2438 7.37699 11.3273 7.61379 11.667C7.84978 12.0056 7.7671 12.4704 7.4302 12.708L7.43313 12.707C7.43072 12.7088 7.42429 12.7138 7.41458 12.7216C7.39447 12.7378 7.36011 12.7668 7.31692 12.8076C7.23006 12.8897 7.10818 13.0195 6.98489 13.1972C6.74095 13.549 6.48786 14.092 6.48782 14.8525C6.48783 15.3304 6.61897 15.972 6.76223 16.4043C6.80247 16.454 6.83942 16.5081 6.86672 16.5693C7.09918 17.0911 7.32669 17.9862 7.32669 18.7041C7.32657 19.744 6.93305 20.5194 6.54055 21.0283C6.34565 21.2809 6.14953 21.4698 5.99954 21.5976C5.92442 21.6616 5.8598 21.7117 5.81106 21.747C5.78667 21.7647 5.76548 21.7792 5.74954 21.79C5.74168 21.7953 5.7346 21.8 5.72903 21.8037C5.72646 21.8054 5.72425 21.8072 5.72219 21.8086C5.72108 21.8092 5.71921 21.8099 5.71829 21.8105L5.71731 21.8115H5.71633C5.71399 21.8084 5.6858 21.7645 5.31594 21.1777L5.71633 21.8125C5.36603 22.0332 4.90307 21.9273 4.68215 21.5771C4.46252 21.2286 4.56488 20.7691 4.91067 20.5468L4.9302 20.5332C4.95033 20.5186 4.98418 20.4924 5.02688 20.456C5.11313 20.3825 5.2331 20.2677 5.35305 20.1123C5.59058 19.8043 5.82657 19.3423 5.82669 18.7041C5.82669 18.294 5.70077 17.7347 5.56594 17.3584C5.51618 17.2994 5.47251 17.2335 5.44192 17.1582C5.21076 16.588 4.98783 15.6221 4.98782 14.8525C4.98786 13.7351 5.36617 12.8998 5.75247 12.3427C5.94413 12.0664 6.13725 11.859 6.28665 11.7177C6.36149 11.647 6.42635 11.5919 6.47512 11.5527C6.4994 11.5332 6.51971 11.5168 6.53567 11.5048C6.54348 11.499 6.55059 11.4942 6.55618 11.4902C6.55896 11.4882 6.5618 11.4859 6.56399 11.4843C6.56495 11.4837 6.56608 11.483 6.56692 11.4824L6.56887 11.4814V11.4804C6.56958 11.4809 6.5816 11.4978 6.89016 11.9404L6.56985 11.4804ZM13.2554 4.70895C14.0396 1.76528 16.7244 -0.72056 20.187 0.191373L20.1861 0.19235C21.1299 0.435809 22.3517 1.0197 23.5366 1.82321C24.7571 2.59998 25.8058 3.54262 26.4458 4.33493L26.7183 4.69235C28.0117 6.5021 28.2729 8.66157 27.7945 10.542L27.7954 10.5429C27.0552 13.5518 24.3246 16.0704 20.8355 15.1513V15.1504C19.8899 14.9063 18.6474 14.3255 17.4605 13.5029V13.5019C16.2499 12.7275 15.21 11.793 14.5747 11.0058V11.0048C13.047 9.12509 12.7156 6.81261 13.2281 4.79391C13.2355 4.76483 13.2449 4.7363 13.2554 4.70895ZM19.8052 1.64157C17.3794 1.00275 15.3133 2.69753 14.688 5.15719C14.684 5.17315 14.6774 5.18864 14.6724 5.20407C14.3034 6.70276 14.519 8.37418 15.5259 9.78122L15.7407 10.0615L15.7427 10.0634C16.266 10.7119 17.1862 11.5509 18.2906 12.2539C18.2987 12.259 18.3071 12.265 18.315 12.2705C19.26 12.9254 20.2077 13.3841 20.9224 13.6152L21.2134 13.7002L21.2173 13.7011C23.6479 14.3414 25.732 12.6538 26.3394 10.1855L26.3404 10.1787C26.7482 8.58296 26.4813 6.75539 25.2818 5.28122L25.2798 5.27926C24.7564 4.63082 23.8363 3.79173 22.732 3.08883C22.7256 3.0848 22.7186 3.08036 22.7124 3.07614C21.6133 2.3284 20.5409 1.83076 19.8091 1.64255L19.8052 1.64157ZM15.5865 5.0654C15.7564 4.9904 17.4185 4.27118 19.3111 5.37692L19.314 5.3779C19.9569 5.75683 20.6632 6.41542 21.0552 6.91305C21.0929 6.95285 21.1276 6.99672 21.1568 7.04587C21.4378 7.51955 22.0297 8.22203 22.5161 8.5654C22.5202 8.56826 22.5248 8.57124 22.5288 8.57419C23.173 9.04839 23.7412 9.10098 24.1353 9.05661C24.3393 9.03357 24.5056 8.98313 24.6167 8.9404C24.6717 8.91922 24.7128 8.90013 24.7359 8.88864C24.7427 8.88521 24.7479 8.88178 24.7515 8.87985L24.7525 8.87887H24.7534L24.7544 8.8779V8.87887L24.7564 8.8779H24.7544C25.1088 8.66994 25.5661 8.78645 25.7779 9.13962C25.9908 9.49486 25.8752 9.95594 25.52 10.1689L25.1343 9.52536C25.4921 10.1223 25.5175 10.1656 25.5191 10.1689L25.5171 10.1709C25.516 10.1715 25.5144 10.1721 25.5132 10.1728C25.5107 10.1743 25.5075 10.1759 25.5044 10.1777C25.4977 10.1815 25.4886 10.1861 25.479 10.1914C25.4598 10.2019 25.4352 10.2163 25.4048 10.2314C25.3438 10.2618 25.2592 10.3 25.1558 10.3398C24.9495 10.4192 24.6583 10.5068 24.3042 10.5468C23.5804 10.6285 22.6232 10.5065 21.6392 9.78219V9.78122C20.9756 9.30869 20.2929 8.49281 19.9204 7.8945C19.9165 7.88953 19.9116 7.88494 19.9077 7.87985C19.6377 7.52097 19.0409 6.95893 18.5523 6.67087V6.66989C17.3137 5.94771 16.2531 6.41029 16.1939 6.43649C15.9182 6.56123 15.5831 6.51326 15.356 6.28708C15.063 5.99477 15.0621 5.51984 15.354 5.22653L15.3579 5.22165L15.4654 5.13278C15.5034 5.10674 15.5441 5.0841 15.5865 5.0654Z" fill="#333634"/>
</svg>
