<svg width="28" height="34" viewBox="0 0 28 34" fill="none" xmlns="http://www.w3.org/2000/svg">
<path d="M23.0078 0.75H4.92188V4.92184H23.0078V0.75Z" stroke="#333634" stroke-width="1.5" stroke-linecap="round" stroke-linejoin="round"/>
<path d="M23.0077 4.92188L26.0122 9.4315C26.7766 10.5752 27.1796 11.9204 27.1796 13.2833V32.75H0.75V13.2833C0.75 11.9204 1.15297 10.5752 1.91742 9.4315L4.92184 4.92188L7.92629 9.4315C8.69073 10.5752 9.09368 11.9204 9.09368 13.2833V32.75" stroke="#333634" stroke-width="1.5" stroke-linecap="round" stroke-linejoin="round"/>
<path d="M21.1312 16.5957C20.0764 15.9557 18.6957 15.8194 17.3624 16.5246C16.7935 16.8327 16.0409 17.4016 15.3298 18.1127C14.6187 18.8239 14.0498 19.5764 13.7416 20.1453C12.675 22.1601 13.552 24.2757 15.152 25.2357C16.2068 25.8935 17.5816 26.0298 18.9209 25.3187C19.4898 25.0164 20.2424 24.4416 20.9535 23.7364C21.6587 23.0253 22.2335 22.2727 22.5357 21.7039C23.6201 19.6713 22.7312 17.5735 21.1312 16.6135" stroke="#333634" stroke-width="1.5" stroke-linecap="round" stroke-linejoin="round"/>
<path d="M15.1528 25.2357C15.1528 25.2357 14.8447 23.5942 16.2788 22.1601C16.7765 21.6446 17.6121 21.135 18.1395 20.9216C18.6728 20.7024 19.5025 20.1868 20.0062 19.6831C21.3573 18.3379 21.1617 16.7913 21.1321 16.6135V16.5957" stroke="#333634" stroke-width="1.5" stroke-linecap="round" stroke-linejoin="round"/>
</svg>
