<svg width="19" height="20" viewBox="0 0 19 20" fill="none" xmlns="http://www.w3.org/2000/svg">
<path fill-rule="evenodd" clip-rule="evenodd" d="M2.32256 2.19494C4.92762 -0.316169 9.29713 -0.980348 12.6351 1.83948L12.9544 2.12268L12.9583 2.12659C13.8723 2.99265 14.9655 4.39618 15.8939 6.03088L16.2337 6.63244C16.3399 6.82849 16.4416 7.03209 16.5335 7.23791C17.1512 8.44824 17.5869 9.59661 17.8079 10.525L17.8089 10.5289C18.2194 12.2992 18.0316 13.9472 17.4095 15.3766H17.4105C17.0062 16.3074 16.4309 17.1295 15.7024 17.8209H15.7015C14.0309 19.4329 11.645 20.2854 9.2376 19.9283L9.23662 19.9274C7.77868 19.7143 6.33997 19.0523 5.07451 17.8864C5.07115 17.8832 5.06806 17.8798 5.06475 17.8766C4.33553 17.178 3.48703 16.14 2.70733 14.8951L2.54717 14.6617C2.39356 14.4278 2.25823 14.1919 2.13311 13.9752C1.18139 12.354 0.511184 10.7056 0.218069 9.48108L0.216116 9.47717L0.217093 9.47619C-0.468214 6.51811 0.532902 3.92537 2.32158 2.19592L2.32256 2.19494ZM11.6741 2.99084C8.98592 0.717555 5.484 1.2304 3.36358 3.27405C1.92454 4.66563 1.1214 6.73158 1.67901 9.1383L1.67705 9.13733C1.92975 10.1899 2.53594 11.6989 3.42901 13.2194L3.43194 13.2252C3.56191 13.4503 3.67759 13.6503 3.79912 13.8356L3.92315 14.0172L3.95147 14.0592C4.68305 15.2344 5.46872 16.1861 6.10284 16.7936C7.0857 17.6956 8.16541 18.2095 9.24053 18.4078L9.45635 18.443L9.45733 18.444C11.3796 18.729 13.3088 18.0484 14.6644 16.7379L14.6702 16.734C15.2516 16.1821 15.71 15.5261 16.0345 14.7789L16.1233 14.5641C16.5454 13.4815 16.6651 12.2368 16.348 10.8688C16.1608 10.0841 15.7756 9.05038 15.1985 7.91955L15.179 7.88049C15.0255 7.53027 14.8237 7.17683 14.595 6.78088L14.5921 6.776C13.722 5.24299 12.7171 3.96462 11.9319 3.21936L11.6741 2.99084ZM4.80791 4.22912L4.76592 4.76916L4.80987 4.2301H4.81573C4.81867 4.23039 4.8226 4.23071 4.82647 4.23108C4.83446 4.23184 4.84481 4.23365 4.85674 4.23498C4.88068 4.23765 4.91282 4.24101 4.95147 4.2467C5.02921 4.25816 5.13601 4.27661 5.26494 4.30627C5.52266 4.36558 5.87462 4.47024 6.26983 4.65295C7.06499 5.02067 8.03455 5.70652 8.75811 6.95959C9.26521 7.83804 9.65323 9.10087 9.75616 9.90491L9.75713 9.90881C9.83218 10.5191 10.16 11.5886 10.5608 12.2828C11.105 13.2252 11.8156 13.7178 12.3821 13.9791C12.6678 14.1109 12.9184 14.1847 13.0921 14.2242C13.1784 14.2439 13.2451 14.2544 13.2864 14.2604C13.3059 14.2632 13.3199 14.2654 13.3274 14.2662C13.7403 14.2974 14.0508 14.658 14.0198 15.0709C13.9904 15.4578 13.672 15.7533 13.2923 15.7633L13.2151 15.7614H13.2112L13.1976 15.7604C13.1896 15.7596 13.1791 15.7587 13.1673 15.7574C13.1433 15.7548 13.1112 15.7503 13.0726 15.7447C12.9948 15.7335 12.8881 15.7155 12.7591 15.6862C12.5013 15.6275 12.1486 15.5238 11.7532 15.3414C10.9577 14.9744 9.98756 14.2893 9.26201 13.0328C8.7561 12.1566 8.3679 10.8951 8.26885 10.0953C8.18925 9.47361 7.85968 8.40332 7.45928 7.70959C6.91783 6.77189 6.20897 6.27706 5.64092 6.01428C5.35493 5.88205 5.1034 5.80834 4.92901 5.76819C4.84208 5.74819 4.77439 5.73721 4.73272 5.73108L4.69073 5.72522L4.61455 5.71545C4.24084 5.64728 3.97191 5.30543 4.00225 4.91858C4.03477 4.50588 4.39523 4.19694 4.80791 4.22912Z" fill="#333634"/>
</svg>
