<svg width="34" height="34" viewBox="0 0 34 34" fill="none" xmlns="http://www.w3.org/2000/svg">
<path d="M13.1379 13.9152C15.0493 12.8703 16.7428 15.9226 16.7428 15.9226C16.7428 15.9226 18.5114 12.9146 20.3933 14.0038C22.2001 15.0635 21.1022 19.2444 16.6764 21.1472C12.2948 19.1312 11.309 14.9293 13.1379 13.914V13.9152Z" stroke="#333634" stroke-linecap="round" stroke-linejoin="round"/>
<path d="M25.2043 22.9647C26.4659 21.2416 27.2043 19.1185 27.2043 16.817C27.2043 11.0385 22.5213 6.35547 16.7428 6.35547C14.5028 6.35547 12.4351 7.05701 10.7366 8.25701C9.18586 9.34008 7.94279 10.8416 7.17356 12.5893C6.60125 13.8816 6.28125 15.3093 6.28125 16.817C6.28125 18.1093 6.51508 19.3462 6.94585 20.4909C7.26585 21.3524 7.7028 22.1647 8.23203 22.897C10.1274 25.5493 13.2351 27.2785 16.7428 27.2785C19.0197 27.2785 21.1182 26.5586 22.8289 25.3216C23.7459 24.6693 24.5459 23.8755 25.2043 22.9647Z" stroke="#333634" stroke-width="1.5" stroke-linecap="round" stroke-linejoin="round"/>
<path d="M29.6912 26.1524C31.6206 23.5171 32.75 20.27 32.75 16.75C32.75 7.91235 25.5876 0.75 16.75 0.75C13.3241 0.75 10.1618 1.82294 7.56411 3.65823C5.19234 5.31471 3.29118 7.61118 2.11471 10.2841C1.23941 12.2606 0.75 14.4441 0.75 16.75C0.75 18.7265 1.10763 20.6182 1.76645 22.3688C2.25586 23.6865 2.92414 24.9288 3.73355 26.0488C6.63237 30.1053 11.3853 32.75 16.75 32.75C20.2324 32.75 23.4418 31.6488 26.0582 29.7571C27.4606 28.7594 28.6841 27.5453 29.6912 26.1524Z" stroke="#333634" stroke-width="1.5" stroke-linecap="round" stroke-linejoin="round"/>
<path d="M16.75 24.8125C21.1683 24.8125 24.75 21.2308 24.75 16.8125C24.75 12.3942 21.1683 8.8125 16.75 8.8125C12.3317 8.8125 8.75 12.3942 8.75 16.8125C8.75 21.2308 12.3317 24.8125 16.75 24.8125Z" stroke="#333634" stroke-linecap="round" stroke-linejoin="round"/>
<path d="M25.2191 22.9531L26.9914 24.707C27.1391 24.8485 27.2191 25.0393 27.2191 25.2424C27.2191 25.4454 27.1391 25.6362 26.9914 25.7777L25.7176 27.0331C25.4038 27.3408 24.8992 27.3408 24.5853 27.0331L22.8438 25.31" stroke="#333634" stroke-width="1.5" stroke-linecap="round" stroke-linejoin="round"/>
</svg>
