<svg width="24" height="24" viewBox="0 0 24 24" fill="none" xmlns="http://www.w3.org/2000/svg">
<path d="M13.47 7.52983C13.6106 7.67028 13.8013 7.74917 14 7.74917C14.1988 7.74917 14.3894 7.67028 14.53 7.52983L15.25 6.80983V16.9998C15.25 17.1987 15.329 17.3895 15.4697 17.5302C15.6103 17.6708 15.8011 17.7498 16 17.7498C16.1989 17.7498 16.3897 17.6708 16.5303 17.5302C16.671 17.3895 16.75 17.1987 16.75 16.9998V6.80983L17.47 7.52983C17.5387 7.60352 17.6215 7.66262 17.7135 7.70361C17.8055 7.7446 17.9048 7.76664 18.0055 7.76842C18.1062 7.7702 18.2062 7.75167 18.2996 7.71395C18.393 7.67623 18.4778 7.62009 18.549 7.54887C18.6203 7.47765 18.6764 7.39281 18.7141 7.29943C18.7518 7.20604 18.7704 7.10601 18.7686 7.00531C18.7668 6.9046 18.7448 6.80529 18.7038 6.71329C18.6628 6.62129 18.6037 6.53849 18.53 6.46983L16.53 4.46983C16.3894 4.32938 16.1988 4.25049 16 4.25049C15.8013 4.25049 15.6106 4.32938 15.47 4.46983L13.47 6.46983C13.3296 6.61045 13.2507 6.80108 13.2507 6.99983C13.2507 7.19858 13.3296 7.3892 13.47 7.52983ZM8.75 17.1898L9.47 16.4698C9.53866 16.3961 9.62146 16.337 9.71346 16.296C9.80546 16.2551 9.90478 16.233 10.0055 16.2312C10.1062 16.2295 10.2062 16.248 10.2996 16.2857C10.393 16.3234 10.4778 16.3796 10.549 16.4508C10.6203 16.522 10.6764 16.6068 10.7141 16.7002C10.7518 16.7936 10.7704 16.8936 10.7686 16.9944C10.7668 17.0951 10.7448 17.1944 10.7038 17.2864C10.6628 17.3784 10.6037 17.4612 10.53 17.5298L8.53 19.5298C8.38938 19.6703 8.19875 19.7492 8 19.7492C7.80125 19.7492 7.61063 19.6703 7.47 19.5298L5.47 17.5298C5.39631 17.4612 5.33721 17.3784 5.29622 17.2864C5.25523 17.1944 5.23319 17.0951 5.23141 16.9944C5.22963 16.8936 5.24816 16.7936 5.28588 16.7002C5.3236 16.6068 5.37974 16.522 5.45096 16.4508C5.52218 16.3796 5.60701 16.3234 5.7004 16.2857C5.79379 16.248 5.89382 16.2295 5.99452 16.2312C6.09523 16.233 6.19454 16.2551 6.28654 16.296C6.37854 16.337 6.46134 16.3961 6.53 16.4698L7.25 17.1898V6.99983C7.25 6.80092 7.32902 6.61015 7.46967 6.4695C7.61032 6.32885 7.80109 6.24983 8 6.24983C8.19891 6.24983 8.38968 6.32885 8.53033 6.4695C8.67098 6.61015 8.75 6.80092 8.75 6.99983V17.1898Z" fill="black"/>
</svg>
